HIERARCHY
ROOT Hips
{
	OFFSET 0.000000 0.000000 0.000000 
	CHANNELS 6 Xposition Yposition Zposition Zrotation Yrotation Xrotation
	JOINT LeftUpLeg
	{
		OFFSET 1.363060 -1.794630 0.839290 
		CHANNELS 3 Zrotation Yrotation Xrotation
		JOINT LeftLeg
		{
			OFFSET 2.448110 -6.726130 0.000000 
			CHANNELS 3 Zrotation Yrotation Xrotation
			JOINT LeftFoot
			{
				OFFSET 2.562200 -7.039590 0.000000 
				CHANNELS 3 Zrotation Yrotation Xrotation
				JOINT LeftToeBase
				{
					OFFSET 0.157640 -0.433110 2.322550 
					CHANNELS 3 Zrotation Yrotation Xrotation
					End Site
					{
						OFFSET 0.000000 0.000000 0.000000 
					}
				}
			}
		}
	}
	JOINT RightUpLeg
	{
		OFFSET -1.305520 -1.794630 0.839290 
		CHANNELS 3 Zrotation Yrotation Xrotation
		JOINT RightLeg
		{
			OFFSET -2.542530 -6.985550 0.000000 
			CHANNELS 3 Zrotation Yrotation Xrotation
			JOINT RightFoot
			{
				OFFSET -2.568260 -7.056230 0.000000 
				CHANNELS 3 Zrotation Yrotation Xrotation
				JOINT RightToeBase
				{
					OFFSET -0.164730 -0.452590 2.363150 
					CHANNELS 3 Zrotation Yrotation Xrotation
					End Site
					{
						OFFSET 0.000000 0.000000 0.000000 
					}
				}
			}
		}
	}
	JOINT Spine
	{
		OFFSET 0.028270 2.035590 -0.193380 
		CHANNELS 3 Zrotation Yrotation Xrotation
		JOINT Spine1
		{
			OFFSET 0.056720 2.048850 -0.042750 
			CHANNELS 3 Zrotation Yrotation Xrotation
			JOINT Neck1
			{
				OFFSET -0.054170 1.746240 0.172020 
				CHANNELS 3 Zrotation Yrotation Xrotation
				JOINT Head
				{
					OFFSET 0.104070 1.761360 -0.123970 
					CHANNELS 3 Zrotation Yrotation Xrotation
					End Site
					{
						OFFSET 0.000000 0.000000 0.000000 
					}
				}
			}
			JOINT LeftArm
			{
				OFFSET 3.362410 1.200890 -0.311210 
				CHANNELS 3 Zrotation Yrotation Xrotation
				JOINT LeftForeArm
				{
					OFFSET 4.983000 -0.000000 -0.000000 
					CHANNELS 3 Zrotation Yrotation Xrotation
					JOINT LeftHand
					{
						OFFSET 3.483560 -0.000000 -0.000000 
						CHANNELS 3 Zrotation Yrotation Xrotation
						JOINT LeftHandIndex1
						{
							OFFSET 0.715260 -0.000000 -0.000000 
							CHANNELS 3 Zrotation Yrotation Xrotation
							End Site
							{
								OFFSET 0.000000 0.000000 0.000000 
							}
						}
					}
				}
			}
			JOINT RightArm
			{
				OFFSET -3.136600 1.374050 -0.404650 
				CHANNELS 3 Zrotation Yrotation Xrotation
				JOINT RightForeArm
				{
					OFFSET -5.241900 -0.000000 -0.000000 
					CHANNELS 3 Zrotation Yrotation Xrotation
					JOINT RightHand
					{
						OFFSET -3.444170 -0.000000 -0.000000 
						CHANNELS 3 Zrotation Yrotation Xrotation
						JOINT RightHandIndex1
						{
							OFFSET -0.622530 -0.000000 -0.000000 
							CHANNELS 3 Zrotation Yrotation Xrotation
							End Site
							{
								OFFSET 0.000000 0.000000 0.000000 
							}
						}
					}
				}
			}
		}
	}
}
MOTION
Frames: 6
Frame Time: 0.041667
13.053632 16.421273 8.492386 6.835380 -7.883683 4.272460 -72.649750 -1.992454 11.876875 10.349046 2.165472 15.968677 -2.725151 -22.173635 -38.536894 0.077700 -1.798100 -4.948000 36.041795 38.843796 -54.853622 -28.994073 -18.058723 117.293390 1.613372 8.816554 -29.725526 -0.672400 5.243700 -14.605000 -18.715121 6.145050 44.837114 10.136617 3.858615 -21.424638 -32.535021 33.298833 40.153227 -4.184500 11.539600 18.039100 -97.461459 7.112165 14.752416 72.428704 -67.660851 -28.860668 1.316978 6.261657 -5.477743 -7.125000 0.000000 0.000000 90.381067 -10.029850 26.025828 -54.678084 60.272630 -18.382941 -2.091901 1.288439 -5.812937 7.125000 0.000000 0.000000 
13.045112 16.418323 8.528516 6.833900 -7.966393 4.061116 -72.305101 -0.755402 12.833320 10.234663 1.880383 14.561872 -2.791743 -22.189481 -38.089527 0.112200 -2.160000 -5.948100 35.285077 39.205473 -56.266447 -28.643180 -18.162660 116.521016 1.309550 8.221620 -30.932982 -0.707000 5.373900 -14.978200 -18.042374 5.981435 45.534053 9.835485 3.797573 -21.104893 -31.999603 33.390395 39.944576 -3.944800 11.580100 18.146400 -97.217676 6.550114 14.881497 71.703473 -67.594743 -28.449313 1.571759 6.104164 -5.231466 -7.125000 0.000000 0.000000 90.532958 -9.485433 25.766624 -54.164655 60.113157 -18.114832 -2.186366 1.335697 -5.914644 7.125000 0.000000 0.000000 
13.042736 16.432333 8.566203 7.241157 -7.944544 4.084290 -72.369011 -0.155570 13.315719 10.103750 1.683986 13.595029 -3.035866 -22.421095 -37.446511 0.261300 -3.288400 -9.082800 33.683964 39.487961 -58.581416 -28.263312 -18.220886 115.680516 0.920508 7.223265 -31.844752 -0.824700 5.794200 -16.188500 -18.048513 5.901261 45.888770 9.868570 3.752516 -20.733645 -31.440765 33.309727 39.845736 -3.727900 11.556800 18.173200 -97.027783 5.944155 14.861931 70.908319 -67.541980 -27.970109 1.647184 6.123044 -5.058928 -7.125000 0.000000 0.000000 90.646276 -8.872550 25.638765 -53.199834 59.716327 -17.557845 -2.299627 1.500625 -5.913948 7.125000 0.000000 0.000000 
13.037492 16.474854 8.607986 7.379552 -8.025512 4.220757 -72.265864 0.309846 13.574034 10.080520 1.435938 12.512208 -3.326195 -22.715521 -36.749257 0.066800 -1.667100 -4.586600 32.747331 39.925158 -60.222818 -27.732549 -18.355094 114.408854 0.530004 6.280056 -32.871761 -0.865800 5.933200 -16.590600 -18.102146 5.822205 45.672846 10.074239 3.778974 -20.949701 -31.604606 33.257356 40.012947 -3.805900 11.547600 18.132800 -96.762759 6.044871 14.840489 70.331478 -67.451271 -27.573574 1.531975 6.381810 -4.808926 -7.125000 0.000000 0.000000 90.624745 -8.997704 25.375526 -52.612989 59.423480 -17.194273 -2.409422 1.546482 -5.992075 7.125000 0.000000 0.000000 
13.028890 16.489027 8.648950 7.403306 -8.179115 4.232521 -71.989100 1.146679 14.100848 10.016852 1.185154 11.306363 -3.450806 -22.757539 -36.209241 0.029000 -1.099300 -3.022100 31.999372 40.441653 -61.597349 -27.207859 -18.480095 113.131651 0.105886 5.328820 -34.110770 -0.885200 5.997400 -16.776800 -17.828645 5.643882 45.434183 10.338711 3.841389 -21.426130 -31.853663 33.273881 40.314557 -3.874800 11.575700 18.004300 -96.576253 6.391011 14.849072 69.258738 -67.225258 -26.910818 1.605886 6.607700 -4.432536 -7.125000 0.000000 0.000000 90.474475 -9.493347 24.987251 -52.715418 59.447850 -17.227353 -2.458875 1.430423 -6.468921 7.125000 0.000000 0.000000 
13.018485 16.485013 8.692126 7.806214 -8.233008 4.198640 -72.053217 1.661253 14.405657 9.879952 1.124496 10.818874 -3.470464 -22.623901 -35.861161 0.018000 -0.866000 -2.380200 30.674393 40.816951 -63.332063 -26.713708 -18.516041 111.971543 -0.287656 4.389692 -35.281008 -0.826600 5.800500 -16.206800 -17.717378 5.485617 45.558774 10.663345 3.868338 -21.490779 -31.436997 33.186132 40.501785 -3.680700 11.567000 17.885400 -96.627764 6.420995 14.664365 68.243307 -67.021063 -26.321533 1.874409 6.575674 -3.845574 -7.125000 0.000000 0.000000 90.372576 -9.367898 24.790629 -52.650766 59.456022 -17.183557 -2.461786 1.278874 -7.376180 7.125000 0.000000 0.000000 
